<?xml version="1.0" standalone="no"?>
<!DOCTYPE svg PUBLIC "-//W3C//DTD SVG 20010904//EN"
 "http://www.w3.org/TR/2001/REC-SVG-20010904/DTD/svg10.dtd">
<svg version="1.0" xmlns="http://www.w3.org/2000/svg"
 width="90.000000pt" height="90.000000pt" viewBox="0 0 90.000000 90.000000"
 preserveAspectRatio="xMidYMid meet">

<g transform="translate(0.000000,90.000000) scale(0.100000,-0.100000)"
fill="#E9242B" stroke="none">
<path d="M315 872 c-120 -42 -214 -126 -268 -240 -64 -136 -45 -326 43 -443
241 -321 734 -202 800 192 29 168 -54 352 -198 443 -103 65 -268 86 -377 48z
m392 -214 c22 -20 23 -29 23 -149 0 -126 0 -128 -26 -148 -15 -12 -40 -21 -55
-21 -26 0 -29 -4 -29 -30 0 -16 -2 -30 -4 -30 -2 0 -33 14 -69 30 -51 23 -81
30 -127 30 -51 0 -65 4 -85 25 -24 23 -25 30 -25 146 0 174 -6 169 209 169
155 0 166 -1 188 -22z m-415 -220 c6 -80 34 -108 109 -108 42 0 49 -3 49 -19
0 -28 -38 -51 -83 -51 -21 0 -55 -9 -77 -20 -49 -25 -50 -25 -50 6 0 15 -4 23
-10 19 -6 -4 -22 1 -35 9 -23 15 -25 22 -25 106 0 81 2 90 22 104 12 9 39 16
59 16 l37 0 4 -62z"/>
</g>
</svg>
